<?xml version="1.0" standalone="no"?>
<!DOCTYPE svg PUBLIC "-//W3C//DTD SVG 20010904//EN"
 "http://www.w3.org/TR/2001/REC-SVG-20010904/DTD/svg10.dtd">
<svg version="1.0" xmlns="http://www.w3.org/2000/svg"
 width="5000.000000pt" height="4000.000000pt" viewBox="0 0 5000.000000 4000.000000"
 preserveAspectRatio="xMidYMid meet">
<metadata>
Created by potrace 1.16, written by Peter Selinger 2001-2019
</metadata>
<g transform="translate(0.000000,4000.000000) scale(0.100000,-0.100000)"
fill="#000000" stroke="none">
<path d="M24639 29927 c-2 -3 -74 -7 -161 -11 -170 -7 -305 -18 -528 -41
-2749 -290 -5234 -1704 -6904 -3928 -789 -1051 -1357 -2247 -1681 -3537 -151
-600 -251 -1272 -283 -1898 -9 -190 -9 -834 0 -1024 54 -1056 287 -2139 667
-3105 29 -73 57 -133 63 -133 22 0 397 201 728 390 2145 1225 4962 3460 7970
6324 577 549 1584 1544 1508 1490 -14 -10 -241 -181 -505 -379 -2206 -1662
-4181 -2986 -6013 -4032 -1142 -652 -2335 -1237 -3277 -1606 l-42 -16 -10 52
c-46 225 -103 729 -119 1052 -9 193 -9 757 0 950 66 1353 468 2737 1141 3925
799 1412 1958 2577 3362 3382 1202 689 2549 1085 3965 1167 185 10 772 10 955
0 1153 -66 2248 -337 3270 -807 744 -342 1442 -789 2070 -1325 926 -792 1671
-1745 2209 -2827 549 -1104 852 -2259 925 -3525 18 -311 9 -859 -19 -1205
-112 -1371 -541 -2702 -1253 -3885 -544 -904 -1267 -1725 -2113 -2399 -1293
-1030 -2870 -1684 -4519 -1875 -635 -74 -1320 -79 -1950 -16 -249 25 -740 97
-754 110 -8 9 168 439 333 812 1081 2447 2901 5356 5505 8798 112 149 208 277
214 285 20 29 -576 -567 -896 -895 -3341 -3426 -5995 -6777 -7192 -9080 -43
-82 -91 -174 -106 -203 -16 -29 -29 -59 -29 -66 0 -7 73 -42 170 -80 970 -382
1953 -602 3025 -677 329 -23 1092 -17 1430 12 2206 186 4195 1041 5840 2508
316 282 756 743 1047 1096 1161 1413 1907 3123 2157 4945 63 460 86 818 86
1350 0 547 -23 901 -91 1385 -233 1661 -884 3238 -1886 4570 -1320 1753 -3146
3008 -5242 3601 -632 179 -1421 317 -2006 349 -63 4 -126 9 -140 12 -31 6
-914 15 -921 10z"/>
<path d="M24285 26974 c-83 -15 -752 -220 -770 -236 -6 -6 -4 -7 5 -4 8 2 116
7 240 11 124 3 279 8 345 11 289 14 534 -66 733 -240 74 -64 2050 -2098 2114
-2175 88 -107 140 -255 141 -404 l0 -89 -89 -89 -89 -89 -24 25 -25 25 26 27
c35 39 46 64 38 93 -7 29 -41 49 -74 43 -34 -7 -236 -214 -236 -242 0 -12 11
-33 26 -47 31 -32 65 -27 109 17 l31 29 97 -98 97 -97 -25 -25 c-14 -14 -29
-40 -35 -59 -8 -28 -6 -36 15 -57 41 -41 60 -32 177 84 94 93 109 112 110 141
2 66 -67 82 -127 29 l-36 -31 -22 21 -22 22 95 96 c52 53 113 105 135 115 77
36 199 16 260 -41 21 -19 23 -17 383 343 l362 362 -230 158 c-126 86 -236 160
-245 163 -9 4 -38 -15 -77 -51 -176 -159 -388 -271 -547 -289 -69 -7 -57 4 44
38 178 62 356 174 471 298 78 84 105 139 105 216 1 170 -152 285 -316 237 -48
-14 -69 -28 -132 -92 -143 -144 -241 -300 -310 -492 l-35 -96 6 65 c10 129 74
271 193 428 36 48 67 91 69 97 1 5 -429 306 -957 669 -528 362 -958 660 -956
663 3 2 144 -80 313 -183 170 -103 444 -269 609 -369 165 -101 417 -254 560
-340 143 -87 271 -165 285 -173 68 -42 -22 24 -285 210 -159 112 -492 348
-740 523 -1106 783 -1051 747 -1220 804 -179 60 -392 77 -570 45z"/>
<path d="M29725 25399 c-159 -24 -330 -91 -470 -184 -95 -63 -154 -118 -760
-704 -918 -889 -2100 -2078 -2387 -2401 -116 -131 -133 -155 -230 -320 -200
-341 -982 -1749 -975 -1756 8 -9 1720 947 1879 1049 147 94 510 438 1363 1291
585 586 1371 1389 1739 1776 282 297 380 511 393 855 5 113 2 152 -11 197 -21
75 -68 134 -136 172 -54 30 -58 31 -200 33 -80 1 -172 -3 -205 -8z"/>
<path d="M28945 23020 l-359 -359 21 -23 c35 -37 63 -109 63 -163 0 -77 -35
-137 -139 -240 l-90 -89 -26 24 -25 24 35 36 c23 23 35 45 35 63 0 32 -32 67
-61 67 -27 0 -237 -204 -245 -237 -4 -14 1 -34 10 -48 24 -37 71 -34 113 7
l33 32 100 -99 99 -99 -34 -38 c-39 -43 -43 -66 -17 -98 13 -16 29 -23 52 -22
28 1 48 15 128 94 108 107 127 139 106 179 -26 51 -60 51 -115 2 l-40 -36 -25
24 -24 24 90 90 90 89 87 0 c146 -1 300 -55 404 -141 67 -56 2116 -2047 2170
-2108 154 -176 238 -394 242 -625 2 -109 -11 -573 -18 -670 -2 -27 -1 -39 4
-30 25 44 223 705 236 783 48 295 -24 601 -200 852 -76 109 -337 479 -385 545
-26 36 -260 367 -520 735 -433 613 -521 736 -479 665 9 -14 37 -61 64 -105 27
-44 111 -183 188 -310 77 -126 230 -378 340 -560 110 -181 263 -433 339 -559
77 -125 137 -230 135 -233 -3 -2 -44 53 -93 124 -48 70 -102 148 -119 173 -17
25 -268 390 -558 811 -289 421 -534 776 -544 788 l-19 23 -94 -71 c-156 -117
-349 -201 -460 -200 -29 0 -20 5 55 33 184 67 332 153 435 254 32 31 73 70 91
87 69 64 92 185 52 275 -58 129 -207 180 -338 115 -70 -34 -107 -65 -178 -153
-86 -105 -162 -234 -207 -350 -58 -152 -60 -156 -54 -92 17 163 114 352 283
545 34 39 59 76 56 82 -6 19 -319 472 -325 473 -3 0 -167 -162 -365 -360z"/>
<path d="M23870 21575 c-77 -77 -121 -128 -115 -134 6 -4 82 -62 170 -127 88
-65 353 -262 590 -437 236 -176 434 -321 440 -323 9 -3 238 548 236 571 0 6
-78 47 -173 92 -95 45 -235 112 -311 149 -603 288 -699 334 -706 334 -4 0 -62
-56 -131 -125z"/>
<path d="M25702 20212 c-155 -64 -281 -120 -280 -124 3 -9 128 -179 325 -445
71 -94 227 -304 348 -467 l219 -296 129 128 128 128 -77 159 c-42 88 -100 210
-129 270 -29 61 -103 216 -165 345 -62 129 -132 277 -156 328 -24 50 -47 91
-51 91 -5 -1 -135 -54 -291 -117z"/>
<path d="M24645 19797 c-66 -46 -223 -153 -350 -239 -126 -86 -362 -245 -522
-354 -161 -110 -419 -284 -573 -389 -154 -104 -336 -228 -405 -275 -68 -47
-251 -170 -405 -275 -154 -104 -399 -271 -545 -370 -343 -233 -1462 -993
-1760 -1195 -69 -47 -299 -203 -513 -348 -213 -145 -457 -311 -542 -368 -85
-58 -283 -192 -440 -299 -157 -106 -409 -278 -560 -380 -151 -103 -390 -265
-530 -360 -140 -96 -362 -246 -492 -335 -131 -89 -238 -164 -238 -167 0 -11
184 -269 316 -443 279 -369 546 -673 899 -1025 370 -371 661 -624 1055 -919
278 -208 330 -243 338 -230 8 12 483 712 904 1332 152 224 364 535 470 692
256 377 520 766 818 1205 134 198 299 441 367 540 67 99 160 236 207 305 46
69 169 250 273 402 582 859 1227 1808 1475 2173 71 105 262 386 425 625 162
239 341 503 397 586 l103 151 -25 21 c-13 12 -24 22 -25 22 -1 -1 -56 -38
-122 -83z"/>
</g>
</svg>
