<?xml version="1.0" standalone="no"?>
<!DOCTYPE svg PUBLIC "-//W3C//DTD SVG 20010904//EN"
 "http://www.w3.org/TR/2001/REC-SVG-20010904/DTD/svg10.dtd">
<svg version="1.0" xmlns="http://www.w3.org/2000/svg"
 width="559.000000pt" height="447.000000pt" viewBox="0 0 559.000000 447.000000"
 preserveAspectRatio="xMidYMid meet">
<metadata>
Created by potrace 1.16, written by Peter Selinger 2001-2019
</metadata>
<g transform="translate(0.000000,447.000000) scale(0.100000,-0.100000)"
fill="#000000" stroke="none">
<path d="M0 2235 l0 -2235 2795 0 2795 0 0 2235 0 2235 -2795 0 -2795 0 0
-2235z m2822 1094 c16 -9 19 -8 13 2 -6 9 -2 10 16 5 68 -18 72 -19 65 -8 -11
17 25 2 49 -21 20 -19 20 -19 -5 -12 -18 4 -21 3 -11 -3 11 -8 10 -11 -5 -15
-18 -5 -17 -6 1 -5 31 2 78 -24 63 -34 -9 -5 -8 -8 6 -8 14 0 17 6 14 25 -3
13 0 26 6 28 6 2 -4 7 -21 11 -39 9 -44 25 -8 22 14 0 25 -5 25 -9 0 -5 9 -6
20 -2 10 3 34 -2 52 -11 18 -10 44 -19 57 -20 40 -5 50 -12 46 -34 -2 -11 1
-20 7 -20 5 0 8 7 5 15 -4 8 -2 17 4 20 5 4 8 1 7 -6 -2 -6 3 -14 11 -17 9 -3
11 0 6 8 -5 9 -4 11 4 6 6 -4 8 -12 5 -18 -4 -6 1 -8 15 -3 16 5 21 2 21 -12
0 -15 -2 -16 -10 -3 -8 13 -10 13 -10 0 0 -11 -3 -11 -12 -2 -15 15 -32 16
-22 1 4 -8 0 -9 -15 -4 -12 3 -21 2 -21 -4 0 -15 14 -21 30 -11 18 11 40 2 34
-15 -3 -8 -1 -22 5 -32 10 -15 10 -14 7 9 -5 27 14 54 29 40 5 -4 5 1 2 11 -6
17 -6 17 23 0 17 -9 30 -21 30 -26 0 -4 4 -6 9 -3 5 3 23 -7 40 -23 16 -15 33
-26 36 -22 3 3 3 -3 -1 -13 -5 -14 -3 -17 7 -14 8 3 33 -8 55 -24 46 -33 122
-107 111 -109 -4 -1 -10 -2 -14 -3 -5 -1 -13 -5 -20 -9 -6 -4 -14 -3 -18 3 -3
5 -1 10 5 10 7 0 5 6 -4 15 -8 9 -13 21 -10 29 3 7 -2 13 -11 13 -18 0 -19 -6
-1 -30 8 -10 12 -27 9 -37 -4 -15 0 -20 13 -20 14 0 16 -2 6 -9 -11 -7 -11 -9
2 -14 10 -4 13 -13 9 -23 -5 -13 -3 -15 8 -8 8 5 18 9 23 9 5 0 10 8 12 19 2
14 0 16 -9 7 -6 -6 -15 -11 -21 -11 -5 0 -6 3 -3 7 4 3 2 12 -4 19 -6 8 -6 14
0 18 5 4 12 2 16 -4 3 -5 11 -10 16 -10 6 0 7 5 3 12 -4 7 -3 8 5 4 6 -4 9
-12 6 -17 -4 -5 1 -9 10 -9 9 0 19 -9 22 -20 3 -11 10 -20 16 -20 8 0 7 -4 -1
-12 -8 -8 -8 -19 3 -45 12 -28 12 -33 0 -33 -8 0 -14 8 -14 18 -1 48 -9 84
-21 95 -10 9 -11 9 -5 -1 4 -8 0 -19 -11 -27 -11 -8 -15 -15 -10 -15 6 0 1 -7
-10 -16 -18 -14 -18 -15 4 -4 12 6 20 15 17 19 -3 5 2 11 10 15 19 7 19 -4 0
-30 -16 -24 -11 -35 13 -27 13 5 13 2 -3 -14 -11 -11 -24 -18 -30 -15 -5 3 -4
7 3 10 10 3 10 7 1 18 -6 8 -15 11 -20 8 -5 -3 -16 11 -26 30 -9 20 -22 36
-28 36 -10 0 -13 17 -16 72 0 10 -5 20 -10 23 -5 4 -7 -9 -4 -32 5 -36 5 -37
-10 -18 -8 11 -13 26 -10 34 4 11 2 11 -8 2 -11 -9 -20 -5 -41 15 -27 28 -33
44 -16 44 6 0 10 8 10 18 -1 15 -3 14 -19 -4 -13 -16 -22 -19 -34 -12 -9 5
-17 16 -17 24 0 8 4 13 9 10 4 -3 17 4 27 17 14 16 14 18 2 9 -18 -14 -27 -6
-23 21 2 10 -3 17 -12 17 -10 0 -13 6 -9 16 3 8 2 12 -3 9 -14 -8 -8 -54 8
-64 8 -5 9 -11 3 -15 -5 -3 -15 1 -22 9 -14 16 -45 21 -35 5 3 -5 -12 0 -34
12 -22 12 -38 26 -34 31 3 5 -3 6 -15 3 -15 -5 -24 -1 -32 14 -6 11 -16 20
-23 20 -7 0 -6 -4 3 -10 17 -11 10 -13 -14 -4 -9 3 -14 9 -11 13 2 4 -9 8 -26
8 -31 0 -58 17 -45 30 4 4 11 1 17 -7 7 -11 8 -9 7 10 -4 32 -28 51 -57 43
-17 -4 -19 -8 -9 -14 18 -12 31 -11 23 1 -3 6 -2 10 4 10 15 0 21 -14 11 -30
-7 -12 -12 -12 -22 -2 -6 6 -17 12 -23 12 -5 0 1 -9 15 -20 14 -11 20 -20 14
-20 -6 0 -14 3 -18 7 -8 8 -31 13 -63 15 -13 0 -23 4 -23 9 0 4 -17 5 -37 3
-29 -4 -34 -3 -23 5 11 8 -7 9 -65 6 -58 -3 -72 -1 -50 5 25 8 22 8 -15 4 -25
-3 -55 -5 -68 -5 -13 1 -21 -3 -18 -8 4 -5 -14 -7 -40 -5 -25 3 -43 1 -40 -4
3 -5 -9 -9 -27 -10 -60 -2 -67 -3 -62 -13 4 -5 -1 -9 -9 -9 -20 0 -21 19 -1
26 12 5 13 10 4 20 -16 19 5 18 24 -1 11 -11 22 -12 51 -4 47 13 46 20 -1 15
-21 -2 -30 -1 -20 1 20 5 23 29 5 36 -7 2 -22 1 -33 -4 -18 -7 -18 -8 4 -8 35
-1 18 -13 -23 -16 -44 -4 -58 22 -18 31 15 4 32 9 37 13 22 12 38 9 59 -13 16
-17 29 -22 56 -19 19 3 36 9 38 13 2 5 18 7 35 4 29 -4 28 -3 -8 10 -22 9 -47
15 -55 15 -8 -1 -4 -4 10 -9 24 -7 23 -7 -12 -15 -36 -7 -58 -2 -58 15 0 4 7
10 14 13 10 4 13 1 9 -9 -3 -7 0 -14 6 -14 6 0 11 6 11 14 0 22 137 33 172 15z
m-332 -71 c15 -21 18 -29 8 -26 -11 5 -14 0 -12 -18 1 -15 -3 -24 -12 -25 -19
-2 -24 -4 -64 -22 -23 -10 -38 -12 -45 -6 -6 7 -5 13 3 18 18 11 15 25 -9 33
-26 10 -56 -1 -37 -13 10 -7 11 -9 0 -9 -7 0 -10 -5 -6 -12 4 -6 -1 -17 -11
-24 -10 -8 -16 -16 -13 -19 3 -3 13 1 21 9 12 12 17 13 21 3 3 -6 3 2 0 18 -5
29 -5 29 10 11 22 -27 21 -30 -21 -49 -29 -13 -39 -14 -45 -4 -5 8 -8 6 -8 -6
0 -10 -6 -25 -14 -32 -12 -12 -16 -12 -26 1 -11 12 -10 13 4 8 9 -3 16 -1 16
6 0 6 -4 8 -10 5 -9 -5 -14 6 -12 25 0 3 -8 6 -19 6 -19 0 -19 -1 -4 -12 9 -7
14 -18 10 -24 -4 -6 -2 -17 4 -24 9 -10 5 -13 -17 -11 -50 3 -53 5 -46 18 4 6
-2 4 -13 -5 -30 -27 -40 -22 -13 7 12 13 27 22 33 18 6 -3 7 -1 3 6 -6 9 -11
9 -22 0 -8 -6 -14 -7 -14 -2 0 5 12 16 28 24 15 8 30 18 34 24 5 6 8 5 8 -3 0
-7 4 -11 10 -7 5 3 6 13 3 22 -4 10 -2 14 4 10 6 -4 16 0 23 8 10 13 14 12 29
-7 12 -15 20 -18 25 -10 4 7 1 12 -8 12 -9 0 -16 7 -16 16 0 14 3 14 16 4 8
-8 14 -9 13 -4 -4 22 2 33 15 28 7 -3 16 2 19 10 4 10 18 16 37 16 16 0 30 3
30 8 0 8 38 29 56 31 5 0 21 -13 34 -31z m-371 -174 c-6 -8 -19 -14 -28 -15
-10 0 -7 -4 8 -10 15 -6 28 -6 34 0 13 13 47 1 47 -16 0 -10 -8 -13 -30 -9
-26 4 -29 2 -21 -12 15 -25 -54 -85 -80 -71 -11 5 -19 7 -19 4 0 -3 0 -8 0
-12 0 -5 4 -8 9 -8 5 0 13 -3 17 -7 4 -5 0 -8 -9 -8 -9 0 -16 -3 -16 -7 3 -20
-2 -34 -10 -28 -5 3 -13 0 -16 -5 -5 -8 -13 -6 -24 4 -10 9 -21 13 -24 9 -4
-3 -7 -2 -7 4 0 5 -6 10 -14 10 -14 0 -14 -3 -1 -50 8 -30 -7 -59 -19 -38 -4
6 -2 11 3 11 6 0 11 4 11 10 0 5 -7 7 -15 4 -10 -4 -14 -14 -10 -28 6 -19 5
-20 -8 -3 -8 9 -18 17 -22 17 -4 0 -2 -6 4 -13 6 -8 8 -17 5 -20 -4 -3 5 -4
19 -2 16 3 29 -1 38 -13 7 -9 9 -14 4 -9 -8 7 -40 -49 -37 -65 3 -12 -16 -9
-24 4 -4 6 1 17 11 25 18 12 18 13 1 13 -10 0 -20 -9 -23 -20 -5 -20 -23 -28
-23 -10 0 6 -4 10 -9 10 -4 0 -7 -10 -6 -22 3 -32 3 -31 21 -13 9 9 18 14 21
11 12 -11 9 -43 -5 -58 -8 -10 -12 -18 -8 -18 4 0 1 -10 -6 -22 -6 -13 -13
-29 -14 -36 -3 -17 -37 -43 -44 -33 -3 5 -14 0 -24 -10 -11 -11 -14 -19 -8
-19 7 0 12 -13 12 -30 0 -16 4 -30 9 -30 12 0 11 41 -1 57 -5 6 -5 14 2 18 5
3 10 -1 10 -9 0 -9 5 -16 11 -16 6 0 9 7 5 15 -3 8 -1 15 4 15 14 0 12 -12 -5
-53 -8 -20 -12 -42 -9 -50 3 -9 -4 -21 -16 -30 -12 -8 -17 -18 -12 -21 6 -3
12 0 15 6 3 7 4 2 3 -12 -1 -14 -4 -30 -7 -35 -2 -6 -3 -53 -1 -105 5 -181 5
-179 27 -177 11 0 23 5 26 10 3 4 16 9 27 10 12 1 22 4 22 8 0 4 8 6 18 4 9
-2 17 -4 17 -5 0 -1 8 -3 18 -5 18 -3 24 10 8 19 -5 4 -11 1 -13 -6 -3 -8 -6
-6 -10 4 -6 13 -1 15 25 11 54 -8 70 -6 62 7 -3 6 -16 8 -28 6 -12 -1 -16 -1
-9 1 6 3 12 8 12 13 0 5 7 7 15 4 8 -4 15 -1 15 5 0 6 4 11 9 11 5 0 7 -10 4
-22 -4 -22 -4 -22 11 -4 8 10 13 22 11 26 -5 8 15 29 25 28 14 -2 50 14 50 22
0 5 18 19 41 31 23 11 38 16 35 10 -4 -7 -1 -8 8 -5 9 3 14 9 11 13 -2 4 6 7
18 7 12 -1 22 4 22 11 0 7 6 18 13 24 6 7 12 9 12 5 0 -4 17 7 37 24 40 36 55
27 27 -15 -15 -24 -16 -28 -2 -42 11 -10 18 -11 22 -4 4 6 0 11 -8 11 -9 0
-16 5 -16 10 0 6 4 10 9 10 6 0 13 -4 16 -10 3 -5 12 -10 18 -10 8 1 7 5 -3
13 -19 15 -25 40 -8 34 7 -2 12 -10 10 -16 -1 -7 2 -10 8 -6 6 3 8 11 5 16 -3
5 1 6 9 3 13 -5 13 -2 3 20 -12 25 -12 25 -17 3 -4 -16 -8 -18 -14 -9 -13 22
12 42 40 31 14 -5 35 -9 47 -8 15 0 8 5 -18 14 -35 11 -39 14 -20 15 2 0 17
12 32 26 l27 25 20 -20 20 -21 -49 -49 c-30 -30 -54 -47 -63 -43 -10 3 -13 1
-9 -6 8 -12 -47 -55 -57 -45 -3 3 -6 0 -6 -8 0 -8 -12 -22 -25 -32 -22 -16
-25 -16 -25 -2 0 9 4 14 9 10 5 -3 12 -1 16 4 3 6 -3 8 -15 6 -11 -2 -20 1
-20 7 0 6 11 8 25 6 17 -4 25 -1 25 8 0 9 -6 11 -17 7 -16 -6 -16 -5 -4 10 7
9 10 17 6 17 -4 0 0 12 9 28 l17 27 -20 -24 c-12 -12 -18 -27 -15 -32 3 -5 -2
-9 -11 -9 -9 0 -13 -4 -10 -10 4 -6 -1 -7 -12 -4 -10 3 -14 2 -8 -3 9 -7 11
-34 6 -79 0 -7 -13 -20 -28 -29 l-28 -18 29 32 c17 17 25 31 19 31 -6 0 -9 14
-7 33 1 17 0 26 -3 19 -2 -6 -10 -9 -16 -5 -9 5 -9 3 -1 -8 14 -19 16 -61 2
-53 -6 4 -8 3 -5 -3 7 -12 -16 -36 -26 -27 -3 3 -3 -3 0 -14 4 -16 1 -21 -15
-19 -11 0 -18 5 -16 9 3 5 11 5 17 1 7 -4 6 1 -2 10 -20 25 -34 16 -37 -21 -3
-38 -25 -64 -45 -52 -8 6 -16 4 -21 -3 -6 -9 -8 -9 -8 1 0 6 -5 12 -12 12 -9
0 -9 -3 0 -12 19 -19 14 -37 -8 -31 -24 6 -51 -13 -44 -31 3 -7 -3 -19 -12
-27 -16 -12 -17 -12 -11 4 3 9 2 17 -3 17 -6 0 -10 -9 -10 -20 0 -17 -2 -19
-14 -8 -9 8 -10 15 -4 19 6 4 -3 6 -19 6 -20 -1 -29 -7 -29 -19 0 -9 5 -16 11
-15 5 1 9 -4 7 -11 -1 -8 2 -11 9 -7 8 5 8 10 0 18 -17 17 -13 31 4 17 25 -21
17 -37 -27 -56 -58 -25 -65 -27 -50 -16 9 6 -2 8 -31 8 -37 -1 -43 -4 -45 -23
-1 -12 2 -24 7 -28 5 -3 7 4 4 16 -5 17 -2 19 20 17 15 -2 30 -8 34 -13 4 -4
2 -5 -4 -1 -7 4 -13 3 -13 -3 0 -9 -79 -56 -81 -49 -10 38 -3 47 20 25 11 -10
12 -9 5 3 -5 8 -7 23 -6 32 2 9 -6 19 -18 23 -25 8 -40 43 -40 94 0 20 -5 42
-12 49 -6 6 -12 22 -14 34 -1 13 -5 42 -8 66 -3 24 -1 42 5 42 6 0 6 7 -1 19
-12 24 -11 149 1 129 6 -8 7 2 4 27 -6 55 7 74 28 41 10 -14 17 -29 17 -33 0
-4 -4 -1 -10 7 -5 8 -11 12 -14 9 -8 -7 22 -66 37 -76 8 -5 8 -2 -1 9 -8 10
-11 31 -7 57 3 27 1 40 -5 36 -6 -3 -10 1 -10 10 0 9 4 13 10 10 11 -6 26 42
16 52 -3 4 -6 -5 -6 -18 0 -18 -2 -21 -9 -9 -6 8 -7 18 -4 24 3 5 1 6 -6 2 -7
-5 -9 -16 -5 -28 4 -15 2 -19 -7 -16 -19 6 -18 28 3 60 10 14 18 31 18 37 0 6
7 8 15 5 8 -4 15 -4 15 -1 0 3 -7 8 -15 11 -10 4 -19 -2 -25 -17 -5 -13 -9
-16 -9 -7 -1 9 6 26 15 38 9 13 13 26 10 29 -3 4 1 17 9 30 9 13 13 29 9 35
-5 7 -3 8 5 4 8 -5 12 -3 10 5 -3 28 1 38 16 33 8 -4 15 -1 15 5 0 6 -5 11
-12 11 -6 0 -4 6 7 13 11 9 15 19 10 27 -5 8 -4 11 3 6 6 -3 13 3 17 14 4 11
11 18 16 15 5 -3 6 1 3 9 -8 21 15 59 31 52 8 -3 17 0 21 6 4 7 3 8 -4 4 -15
-9 -15 9 -1 35 5 11 14 17 19 14 11 -7 32 30 22 40 -4 3 0 5 8 3 8 -1 14 2 13
8 -1 8 9 10 30 7 28 -3 33 -1 33 16 0 12 -4 21 -8 21 -4 0 -8 -7 -8 -15 0 -18
-16 -20 -26 -3 -4 6 -3 8 3 5 6 -4 15 5 21 18 7 14 19 25 27 25 9 0 13 4 10
10 -4 6 1 7 11 3 12 -4 15 -3 10 5 -4 8 2 16 16 21 13 6 19 10 15 10 -5 1 -5
6 -2 11 4 6 11 8 16 4 6 -4 6 -11 -2 -20z m1237 -261 c-3 -3 2 -12 11 -18 15
-11 15 -15 4 -29 -7 -9 -20 -16 -27 -16 -8 0 -14 -5 -14 -11 0 -6 9 -8 22 -3
19 6 17 1 -12 -29 -18 -20 -37 -34 -42 -31 -5 3 -6 9 -4 13 3 4 1 13 -3 20 -6
9 -11 10 -15 2 -4 -6 -3 -11 3 -11 5 0 8 -11 7 -25 -2 -13 1 -22 6 -19 5 3 4
-3 -4 -15 -7 -12 -21 -24 -30 -27 -10 -3 -18 -13 -18 -21 0 -9 -3 -13 -7 -9
-5 4 -8 12 -8 17 0 15 -19 10 -21 -6 -1 -8 2 -13 7 -9 5 3 9 1 9 -5 0 -14 -56
-64 -75 -67 -24 -3 -32 -14 -11 -14 9 0 14 -5 11 -10 -4 -6 -11 -7 -17 -4 -6
4 -8 2 -5 -3 4 -6 -9 -21 -28 -34 -19 -13 -35 -27 -35 -32 0 -4 -12 -12 -26
-17 -14 -6 -23 -14 -20 -19 3 -5 -2 -15 -12 -22 -15 -13 -16 -12 -3 4 12 16
11 17 -10 13 -13 -3 -28 -5 -32 -5 -5 -1 -5 -6 -1 -12 4 -8 9 -7 16 2 8 11 9
11 5 -1 -2 -8 -11 -14 -20 -12 -11 2 -15 -2 -11 -12 4 -11 0 -13 -16 -9 -17 5
-19 8 -8 15 9 7 7 8 -7 2 -11 -4 -28 -7 -37 -8 -12 0 -14 -4 -7 -17 13 -26 12
-28 -23 -27 -18 1 -27 3 -20 5 6 3 10 8 7 13 -7 12 45 51 59 43 6 -3 8 -3 4 2
-4 4 0 14 10 21 25 19 37 17 21 -3 -10 -15 -9 -14 7 1 13 13 15 20 7 23 -7 3
-13 9 -13 14 0 4 7 6 15 3 11 -5 13 -2 9 10 -7 19 -23 12 -33 -17 -8 -20 -8
-20 -13 1 -4 15 -2 22 8 22 8 0 14 5 14 11 0 5 -6 7 -12 3 -7 -4 0 6 17 23 17
18 36 28 44 25 11 -4 9 -9 -9 -24 -12 -10 -18 -18 -12 -18 5 0 15 7 22 15 11
13 15 13 21 3 6 -9 9 -9 9 -1 0 6 -6 18 -12 25 -7 7 -14 20 -16 27 -3 12 0 12
14 0 16 -12 17 -12 12 1 -3 9 0 24 8 35 8 10 14 15 14 9 0 -5 9 6 20 24 11 18
24 31 29 28 5 -3 11 1 15 9 3 8 14 15 25 15 11 0 23 4 26 10 4 6 -1 7 -11 3
-11 -4 -7 5 11 25 21 24 34 31 49 26 20 -6 20 -6 2 8 -17 14 -18 15 -2 21 10
4 22 5 26 2 5 -3 11 -1 15 4 8 14 36 1 28 -13 -3 -6 -2 -7 2 -3 21 19 12 34
-19 31 l-31 -4 25 20 c14 11 29 20 33 20 5 0 5 5 1 12 -4 6 -3 8 4 4 6 -3 13
-2 16 2 3 5 19 9 37 10 17 0 28 -2 25 -5z m391 -28 c6 -7 13 -21 15 -31 2 -10
9 -24 17 -30 8 -6 12 -18 9 -26 -4 -8 -2 -21 4 -29 8 -11 8 -9 4 6 l-6 20 16
-20 c14 -18 14 -20 -5 -23 -10 -2 -22 -10 -25 -19 -5 -13 -4 -14 9 -3 9 7 19
9 23 5 4 -4 2 -10 -4 -12 -17 -6 -5 -43 13 -43 13 0 13 3 3 15 -10 13 -11 18
-1 28 7 7 11 8 10 2 -1 -5 0 -17 3 -25 4 -8 9 -24 14 -35 4 -11 8 -35 9 -53 0
-18 6 -37 13 -40 6 -4 11 -16 11 -27 -1 -11 2 -38 5 -60 13 -78 16 -136 8
-131 -5 3 -9 -15 -9 -40 0 -27 4 -40 8 -32 5 8 8 -2 7 -24 -1 -40 -18 -54 -18
-16 0 12 -3 19 -6 15 -9 -9 5 -59 15 -52 11 6 2 -35 -11 -51 -4 -6 -6 -19 -2
-28 3 -9 -1 -31 -10 -50 -9 -19 -14 -41 -10 -49 3 -9 -3 -16 -16 -20 -18 -5
-20 -8 -9 -25 11 -17 10 -27 -3 -54 -9 -18 -22 -48 -30 -66 -13 -33 -13 -33
-33 -14 -14 12 -27 16 -40 12 -11 -4 -23 -6 -27 -3 -5 2 -8 -1 -8 -7 0 -7 8
-9 20 -5 23 7 60 -2 60 -15 0 -5 -8 -7 -17 -3 -15 5 -14 3 2 -10 16 -13 17
-16 4 -17 -9 0 -23 -8 -32 -18 -13 -15 -14 -21 -4 -31 9 -10 9 -11 -5 -6 -9 4
-19 14 -21 23 -2 10 -3 7 -2 -5 1 -12 -3 -24 -8 -26 -6 -2 -3 -6 7 -10 12 -5
15 -3 10 6 -5 9 -4 9 6 0 11 -10 10 -16 -5 -33 -10 -11 -22 -17 -26 -14 -5 3
-14 2 -20 -2 -8 -5 -8 -9 1 -14 9 -6 9 -12 -1 -29 -8 -11 -18 -21 -23 -21 -4
0 -3 6 3 14 7 8 8 17 3 19 -4 3 -13 -3 -20 -14 -10 -16 -10 -20 2 -25 11 -4 8
-11 -11 -32 -14 -15 -29 -27 -34 -27 -5 0 -14 -7 -19 -15 -7 -11 -10 -11 -10
-2 0 7 -4 10 -10 7 -5 -3 -10 -1 -10 4 0 6 -4 10 -9 8 -5 -1 -9 3 -9 8 0 6 3
9 7 8 4 -1 8 5 8 13 0 8 -4 14 -9 14 -4 0 -8 -4 -8 -10 0 -5 -6 -10 -14 -10
-18 0 -27 -25 -14 -38 6 -6 6 -12 -1 -16 -6 -4 -11 -2 -11 4 0 6 -4 8 -10 5
-25 -15 -7 27 20 46 16 12 27 25 25 30 -8 13 26 19 46 9 10 -6 20 -7 20 -3 1
4 2 15 3 23 1 17 27 21 38 5 4 -5 6 3 4 18 -3 30 -15 49 -17 26 -1 -8 0 -18 1
-24 1 -5 -2 -7 -6 -3 -4 4 -13 3 -21 -3 -9 -9 -13 -8 -13 0 0 6 5 11 11 11 5
0 7 5 4 10 -3 6 1 13 9 16 9 3 13 10 10 16 -3 5 4 12 16 15 13 3 19 11 16 20
-3 8 -1 11 4 8 9 -6 15 8 11 29 -1 5 7 6 18 3 18 -4 19 -2 10 14 -6 13 -6 19
1 19 5 0 10 -6 11 -12 0 -10 2 -10 6 0 7 17 23 15 23 -4 0 -8 5 -12 10 -9 15
9 -9 37 -26 31 -18 -7 -25 4 -13 25 5 11 20 20 32 20 19 1 19 2 3 6 -15 4 -16
7 -5 14 8 4 15 17 15 29 3 38 4 41 16 34 8 -5 9 -2 5 10 -4 9 0 30 8 45 8 16
11 31 8 34 -3 4 -1 13 5 20 7 8 8 18 4 22 -4 5 -1 5 6 0 8 -4 12 -16 9 -26 -3
-11 -1 -19 4 -19 5 0 9 8 9 17 0 9 6 24 14 32 8 10 11 24 6 36 -5 16 -8 13
-14 -15 -5 -27 -9 -32 -16 -20 -6 10 -6 16 1 18 6 3 6 9 -2 18 -8 10 -8 14 0
14 6 0 10 14 10 33 -3 71 4 147 11 142 5 -3 12 0 16 6 4 8 3 9 -4 5 -16 -10
-26 37 -18 92 8 62 41 86 49 35 3 -22 4 -21 3 5 -2 24 2 31 12 27 10 -4 11 1
6 18 -4 12 -7 30 -6 39 0 10 -3 20 -9 23 -5 3 -6 0 -3 -8 5 -15 -10 -30 -33
-33 -7 -1 -13 7 -13 18 0 11 -8 22 -19 25 -11 3 -22 12 -26 20 -4 13 -3 14 10
3 12 -10 15 -10 15 1 1 8 9 0 18 -17 10 -18 23 -29 31 -26 11 4 11 6 0 13 -11
7 -11 9 -1 9 7 0 11 4 7 10 -3 5 -12 7 -20 4 -9 -4 -16 3 -21 20 -3 14 -11 26
-16 26 -6 0 -5 7 2 15 7 9 10 18 7 21 -3 3 -11 -5 -18 -17 -9 -17 -9 -24 0
-27 6 -2 11 -8 11 -13 0 -4 -6 -6 -14 -3 -21 8 -26 42 -10 58 8 8 14 23 13 33
0 15 -2 15 -9 -3 -11 -29 -27 -37 -33 -20 -8 21 4 57 16 49 6 -3 7 -1 3 5 -4
7 -3 12 2 12 15 0 23 28 10 36 -6 4 -8 3 -4 -4 3 -6 -2 -17 -12 -24 -10 -7
-21 -20 -24 -28 -3 -10 -6 -8 -10 8 -4 12 -2 20 3 16 5 -3 9 -1 9 4 0 6 -7 12
-15 16 -8 3 -15 11 -15 18 0 10 2 10 9 -1 7 -11 13 -11 32 3 13 9 18 16 12 16
-7 0 -15 -5 -19 -11 -4 -7 -10 -7 -16 -1 -6 6 -17 8 -24 5 -14 -5 -15 -1 -17
35 -1 9 -7 22 -14 27 -16 13 -4 30 22 30 11 0 19 5 18 12 -3 14 25 6 44 -12z
m-451 -222 c4 -10 6 -21 6 -25 -3 -11 6 -10 30 3 15 8 19 8 14 0 -4 -6 -3 -11
2 -11 5 0 9 -7 9 -15 0 -8 -4 -12 -8 -10 -10 7 -32 -22 -25 -34 3 -5 16 -7 28
-3 14 3 19 1 14 -6 -3 -6 -1 -14 5 -18 8 -5 4 -13 -12 -26 -22 -18 -22 -18 -2
-9 23 12 50 15 41 5 -4 -3 7 -18 23 -33 l29 -28 -23 -12 c-21 -11 -21 -11 4
-6 19 3 29 0 33 -11 3 -8 2 -12 -4 -9 -6 3 -10 0 -10 -7 0 -8 9 -14 20 -14 11
0 20 4 20 9 0 4 5 5 11 1 8 -4 4 -11 -11 -19 -19 -10 -20 -13 -6 -18 10 -4 15
-3 11 3 -3 6 2 10 11 10 10 0 15 -3 11 -6 -3 -4 3 -14 13 -23 19 -15 36 -96
19 -85 -5 3 -9 10 -9 16 0 7 -10 22 -22 36 -16 16 -18 23 -8 20 8 -2 19 -7 23
-13 5 -6 7 -4 5 4 -2 8 -15 16 -28 18 -29 4 -70 40 -70 61 0 9 -3 12 -7 9 -9
-9 -54 33 -47 44 3 5 -1 9 -9 9 -17 0 -59 44 -50 53 3 4 -3 7 -15 7 -12 0 -23
8 -27 20 -4 11 -10 18 -14 16 -4 -3 -13 0 -21 6 -12 8 -12 9 2 4 10 -3 20 -1
23 4 3 5 12 7 20 3 8 -3 15 -1 15 5 0 14 -28 23 -35 12 -4 -6 -16 -10 -27 -10
-12 0 -30 -7 -40 -17 -10 -9 -18 -11 -18 -6 0 6 7 14 16 17 8 3 12 10 9 16 -9
14 4 50 17 50 7 0 7 -4 0 -13 -8 -9 -8 -17 0 -27 8 -13 9 -12 5 1 -3 9 0 22 6
28 6 6 7 11 3 11 -5 0 -3 7 4 15 17 20 36 19 46 -2z m-612 -459 c6 -15 4 -15
-10 -3 -16 13 -16 12 -5 -10 8 -15 9 -21 2 -17 -7 5 -11 -2 -11 -16 l-1 -23
-19 23 c-11 13 -21 18 -25 12 -3 -6 -12 -8 -18 -4 -7 3 -4 -1 5 -9 10 -8 15
-17 11 -20 -3 -4 -1 -7 6 -7 8 0 11 7 7 18 -5 15 -4 14 9 -2 17 -23 11 -38
-12 -29 -12 5 -15 2 -10 -10 3 -9 0 -23 -8 -31 -8 -8 -15 -23 -16 -33 0 -10
-5 -3 -10 15 -5 17 -14 32 -21 32 -7 0 -7 -4 -1 -12 24 -31 -4 -112 -40 -122
-30 -8 -34 2 -6 13 13 5 21 10 17 10 -5 1 -10 0 -11 -1 -2 -2 -11 3 -19 9 -13
11 -15 9 -13 -15 1 -21 6 -27 23 -26 17 0 19 -2 11 -13 -6 -7 -16 -10 -21 -7
-5 3 -8 -2 -6 -12 2 -12 -2 -18 -11 -16 -8 2 -11 -3 -8 -12 7 -17 -18 -42 -27
-27 -4 5 -1 13 5 16 5 4 8 14 5 22 -3 8 -2 11 3 8 5 -3 12 -1 16 4 3 6 -10 9
-31 8 -26 -2 -38 -8 -40 -20 -2 -13 1 -15 16 -7 23 12 30 13 30 2 0 -5 -12
-14 -27 -21 -20 -9 -23 -15 -15 -23 7 -7 12 -19 12 -27 0 -14 -1 -14 -10 -1
-7 12 -9 10 -7 -7 0 -12 5 -19 11 -16 5 3 1 -8 -10 -25 -10 -18 -21 -28 -24
-23 -6 10 -47 8 -57 -4 -5 -4 -2 -5 5 -1 7 4 12 2 12 -5 0 -8 5 -7 18 2 15 13
16 12 3 -4 -8 -10 -20 -16 -27 -13 -13 5 -13 -19 1 -31 4 -5 5 -1 0 7 -5 8 -5
12 0 8 4 -4 15 -2 23 5 9 6 5 -3 -8 -20 -13 -18 -28 -33 -32 -33 -5 0 -6 -4
-3 -10 3 -5 1 -10 -4 -10 -16 0 -13 20 4 26 8 4 15 11 15 16 0 7 -5 6 -13 -1
-8 -6 -17 -7 -21 -3 -4 4 -7 2 -6 -3 5 -24 -1 -27 -16 -9 -14 18 -15 18 -4 -4
6 -13 18 -26 26 -29 12 -5 11 -10 -7 -30 -13 -13 -30 -21 -37 -18 -12 4 -12 2
-4 -8 9 -11 5 -24 -19 -60 -36 -54 -42 -59 -62 -51 -22 8 -9 36 13 29 9 -3 22
0 28 7 8 10 1 13 -34 13 -24 1 -39 -2 -33 -6 8 -5 8 -8 0 -13 -6 -4 -14 -1
-17 7 -3 8 -13 14 -22 12 -9 -2 -23 -4 -31 -4 -11 -1 -10 -5 5 -17 19 -15 19
-15 -1 -5 -12 5 -42 33 -69 63 -26 29 -60 66 -75 82 -24 27 -25 28 -3 17 22
-12 22 -11 10 9 -7 11 -18 18 -23 16 -6 -2 -12 7 -13 21 -1 13 2 22 7 19 5 -3
16 6 25 19 9 14 21 23 25 20 5 -3 23 8 40 24 20 19 39 27 56 26 14 -2 23 1 19
6 -3 5 -10 7 -15 4 -22 -14 -6 3 22 24 18 13 29 19 26 14 -7 -12 42 -12 60 0
6 4 14 3 18 -2 8 -15 55 9 55 28 0 11 -3 10 -15 -5 -14 -19 -14 -19 -10 1 2
11 5 27 8 35 2 8 2 12 0 7 -3 -4 -9 -5 -14 -2 -5 4 -6 -1 -3 -9 4 -10 1 -16
-7 -16 -12 0 -12 -2 -1 -9 11 -7 10 -9 -3 -14 -9 -4 -13 -3 -10 3 3 6 1 10 -4
10 -6 0 -11 -5 -11 -11 0 -5 -4 -7 -10 -4 -17 11 -11 23 15 29 14 4 23 11 20
16 -9 15 30 31 44 17 10 -9 11 -8 6 5 -5 11 1 20 17 29 13 6 36 23 52 36 20
17 32 21 39 14 14 -14 27 -14 27 0 0 5 -5 7 -12 3 -7 -4 -8 -3 -4 4 11 18 36
15 30 -3 -7 -17 13 -20 36 -5 11 7 9 11 -13 19 -15 6 -27 14 -27 17 0 4 3 5 6
2 3 -3 17 5 31 18 14 13 29 22 32 19 3 -4 -1 -10 -8 -14 -16 -11 -5 -74 12
-68 16 5 15 33 0 30 -18 -4 -16 22 2 37 8 7 13 16 10 20 -3 4 2 13 10 20 8 7
15 9 15 4 0 -5 7 2 16 14 8 12 19 20 24 17 4 -3 11 3 14 12 6 15 8 15 16 3 8
-13 10 -12 10 3 0 15 11 22 25 15 2 -2 11 6 20 17 9 11 14 15 11 8 -4 -6 -2
-15 4 -18 6 -4 10 -3 9 2 -6 34 23 48 35 17z m406 -3 c0 -5 -7 -16 -15 -25 -8
-8 -15 -19 -15 -25 0 -6 -5 -11 -11 -11 -5 0 -8 -4 -5 -8 3 -5 -10 -24 -28
-43 -19 -19 -32 -40 -29 -49 4 -13 3 -13 -5 -1 -6 8 -18 16 -27 17 -15 2 -16
1 0 -16 13 -15 14 -20 2 -31 -7 -8 -12 -19 -10 -24 2 -6 -10 -25 -26 -42 -16
-18 -26 -35 -23 -40 4 -4 0 -3 -7 4 -12 10 -17 7 -28 -14 -8 -15 -11 -33 -9
-40 3 -7 3 -13 0 -13 -2 0 -9 10 -14 23 -8 21 -9 21 -9 2 -1 -12 4 -26 11 -33
9 -9 9 -12 -1 -12 -7 0 -10 -4 -6 -9 8 -13 -15 -26 -48 -26 -17 0 -26 4 -23
12 3 6 0 13 -6 15 -6 2 -8 10 -4 16 5 9 13 6 26 -10 17 -21 19 -21 25 -6 4 10
11 15 16 12 12 -7 11 7 -1 26 -8 13 -10 12 -10 -3 0 -11 -4 -15 -12 -11 -7 4
-8 3 -4 -4 4 -7 2 -12 -3 -12 -6 0 -11 2 -11 4 0 2 -3 13 -7 23 -3 10 -2 15 2
10 11 -10 45 22 45 42 -1 10 -7 5 -16 -12 -8 -15 -19 -25 -24 -22 -5 3 -2 15
8 27 25 32 87 96 72 76 -15 -22 -2 -23 24 -3 17 13 17 15 3 21 -9 3 -14 10
-11 16 3 5 12 1 18 -8 8 -10 19 -14 27 -10 8 4 5 0 -5 -8 -11 -9 -23 -16 -28
-16 -4 0 -5 -7 -2 -15 4 -8 10 -15 15 -15 4 0 6 6 3 14 -3 8 3 16 15 19 25 6
26 16 6 43 -13 16 -14 16 -9 2 3 -10 2 -18 -4 -18 -5 0 -12 9 -15 19 -4 15 0
19 14 16 11 -2 25 -7 32 -11 6 -4 4 1 -5 12 -17 19 -15 22 28 78 26 32 55 61
65 63 10 3 16 10 12 16 -4 6 0 8 10 4 9 -3 19 -2 22 3 3 4 -1 11 -7 13 -8 3
-6 6 5 6 9 1 17 -3 17 -8z m-290 -432 c0 -5 6 -7 13 -4 6 4 3 -1 -8 -10 -11
-8 -20 -23 -20 -33 0 -9 -6 -16 -14 -14 -9 2 -11 -3 -7 -13 4 -10 2 -14 -5 -9
-6 4 -15 0 -20 -7 -6 -10 -8 -8 -6 8 0 12 5 19 11 16 5 -4 6 -1 1 7 -6 10 -3
12 13 8 12 -4 20 -2 16 3 -10 17 -41 9 -58 -13 -11 -15 -15 -17 -12 -6 4 12 1
15 -11 11 -12 -5 -15 -2 -10 10 3 9 2 17 -3 17 -9 0 -11 -6 -14 -42 -1 -8 10
-13 27 -12 15 1 28 -4 29 -10 0 -6 2 -15 2 -21 1 -5 5 -16 9 -22 5 -8 3 -13
-4 -13 -7 0 -9 -3 -6 -7 9 -9 -22 -43 -40 -43 -7 0 -13 5 -13 11 0 5 4 8 9 4
5 -3 12 -2 15 3 2 4 -8 8 -23 7 -15 0 -28 -5 -28 -12 0 -7 4 -10 8 -7 4 2 10
0 14 -6 3 -5 1 -10 -5 -10 -6 0 -9 -4 -5 -9 3 -5 1 -12 -4 -15 -5 -4 -8 -28
-6 -55 4 -49 3 -49 -23 -45 -19 3 -23 2 -13 -5 11 -7 9 -11 -9 -21 -12 -6 -19
-14 -16 -17 3 -3 17 2 31 11 l25 17 -19 -37 c-20 -37 -19 -60 1 -48 6 4 8 3 5
-3 -6 -10 20 -14 130 -16 34 -1 65 -5 69 -9 4 -5 18 -8 32 -8 21 0 22 -2 12
-15 -7 -8 -22 -15 -34 -16 -15 -1 -13 -3 10 -10 17 -5 36 -15 43 -22 9 -11 4
-14 -27 -14 -20 0 -28 2 -17 4 17 5 15 7 -10 17 -22 9 -39 10 -64 2 -26 -8
-29 -11 -15 -16 10 -4 -5 -7 -32 -8 -27 0 -56 4 -64 9 -11 7 -3 8 25 4 37 -4
38 -4 10 5 -32 11 -62 18 -82 19 -6 1 -9 11 -6 24 4 20 3 21 -10 5 -17 -21
-28 -23 -25 -5 4 16 28 25 51 19 13 -3 15 -7 7 -12 -9 -5 -9 -9 -1 -14 6 -4
11 -2 11 3 0 6 5 11 12 11 6 0 8 -3 5 -7 -10 -9 42 -33 72 -32 23 1 22 2 -9
11 -19 5 -37 13 -40 17 -3 4 -21 16 -41 28 -28 16 -40 18 -50 10 -8 -7 -7 -4
1 7 13 18 13 19 -1 14 -9 -4 -16 -1 -16 7 0 7 6 11 14 8 8 -3 13 2 13 13 0 14
-2 16 -9 6 -4 -8 -12 -14 -17 -15 -5 -1 -8 -18 -8 -37 0 -19 -4 -38 -9 -41 -5
-4 8 -12 29 -19 46 -15 72 -34 34 -26 -14 4 -34 7 -45 9 -11 1 -24 5 -30 9
-13 8 -78 22 -88 20 -5 -2 -6 2 -3 7 3 5 -5 16 -19 25 -34 22 -42 20 -14 -4
31 -25 12 -26 -21 0 -14 11 -19 20 -12 20 7 0 10 5 7 11 -4 5 10 3 31 -6 48
-20 56 -13 9 9 l-36 17 33 57 c31 55 40 65 54 62 4 -1 11 4 16 12 7 10 8 9 4
-4 -7 -23 10 -24 18 -1 9 21 -14 35 -33 20 -9 -8 -8 -1 4 18 33 52 52 75 59
68 3 -3 6 0 6 8 0 8 7 22 14 32 12 15 18 17 36 7 12 -6 19 -14 16 -17 -3 -3
-12 -1 -19 6 -11 9 -17 7 -28 -6 -11 -15 -11 -16 1 -6 10 9 17 9 26 2 23 -19
35 0 17 26 -10 12 -21 21 -25 18 -5 -2 -8 -2 -8 1 0 3 9 10 20 16 16 8 18 8
14 -4 -3 -8 0 -17 7 -22 8 -4 10 -3 5 4 -4 7 -4 18 1 25 11 18 13 38 2 31 -5
-3 -6 -10 -3 -16 4 -7 2 -8 -4 -4 -8 5 -3 18 16 42 29 37 40 41 48 20 4 -10
39 -16 39 -6 0 1 10 3 22 4 13 2 26 6 30 11 5 4 -2 4 -14 1 -13 -4 -23 -3 -23
3 0 8 16 16 43 20 4 0 7 -4 7 -10z m725 -233 l29 -23 -42 -22 c-24 -12 -41
-25 -38 -30 6 -10 -74 -62 -86 -55 -5 3 -5 11 1 18 6 7 8 16 4 19 -3 4 0 7 8
7 8 0 20 -5 26 -11 8 -8 13 -8 17 0 4 6 0 11 -9 11 -9 0 -13 5 -10 10 4 6 11
8 16 5 5 -4 9 -1 9 5 0 6 5 8 12 4 7 -5 8 -3 3 6 -5 9 -4 11 3 6 7 -4 12 -2
12 4 0 6 5 8 12 4 7 -4 8 -3 4 5 -4 6 -12 9 -17 5 -5 -3 -18 0 -27 8 -15 11
-15 11 -5 -3 13 -16 8 -29 -9 -29 -5 0 -6 6 -2 13 5 8 2 8 -9 -2 -12 -9 -17
-10 -17 -2 0 7 -5 9 -12 5 -7 -5 -5 -11 7 -21 17 -12 17 -13 2 -13 -10 0 -20
7 -23 15 -4 8 -10 12 -15 9 -5 -3 -2 -16 7 -30 16 -24 14 -28 -18 -25 -10 1
-18 -2 -18 -7 0 -5 7 -9 16 -8 27 2 27 -20 0 -38 -21 -14 -24 -14 -20 -1 4 8
1 15 -5 15 -6 0 -11 -9 -11 -21 0 -13 -11 -25 -35 -35 -19 -8 -37 -14 -40 -14
-3 0 -18 -6 -34 -15 -17 -8 -37 -12 -45 -9 -11 4 -16 1 -16 -10 0 -19 -16 -21
-24 -3 -5 9 -7 9 -12 0 -3 -8 -15 -11 -28 -7 -15 3 -28 -2 -40 -15 -20 -22
-42 -29 -30 -10 3 6 -8 4 -24 -5 -40 -21 -71 -20 -105 2 l-27 19 54 -1 c30 -1
52 -5 49 -10 -3 -5 0 -7 6 -5 7 3 12 8 11 13 -3 18 36 35 70 30 27 -5 39 -2
50 13 14 16 14 17 -2 4 -12 -9 -30 -11 -53 -7 -28 6 -41 2 -62 -13 -35 -28
-93 -29 -93 -1 0 15 -7 20 -27 21 -16 0 4 7 42 14 42 7 77 9 87 4 24 -13 48
-12 28 1 -10 7 -11 10 -2 11 22 3 27 4 40 13 22 13 29 -4 8 -20 -11 -8 -16
-14 -10 -14 15 0 30 14 37 33 4 10 11 16 16 12 5 -3 13 -1 16 5 4 6 16 8 27 4
14 -4 18 -2 14 5 -4 6 -2 12 3 12 20 3 26 5 47 16 16 9 24 9 33 0 10 -9 11 -8
6 4 -4 10 -1 20 6 25 8 5 10 3 5 -7 -4 -8 0 -5 8 5 9 11 16 16 16 10 0 -5 4
-3 9 5 7 10 13 11 31 1 24 -13 52 1 29 15 -8 5 -10 4 -5 -3 8 -14 4 -15 -18
-6 -9 3 -13 10 -10 15 3 5 9 7 14 4 5 -3 15 3 21 14 7 10 19 17 26 14 8 -3 13
-2 11 3 -2 5 2 9 7 9 6 0 9 -4 7 -8 -1 -5 2 -5 8 -2 6 4 9 13 6 21 -5 12 -1
12 23 0 16 -9 31 -12 34 -9 4 3 13 1 20 -5 14 -12 27 -6 27 12 0 6 -4 5 -9 -2
-6 -10 -12 -7 -25 12 -21 32 -10 33 29 2z"/>
</g>
</svg>
